<?xml version="1.0" encoding="windows-1252"?>
<!DOCTYPE svg PUBLIC "-//W3C//DTD SVG 1.1//EN" "http://www.w3.org/Graphics/SVG/1.1/DTD/svg11.dtd">
<svg xmlns="http://www.w3.org/2000/svg" xml:space="preserve" version="1.1" overflow="visible" xmlns:xlink="http://www.w3.org/1999/xlink" viewBox="0 0 88 31">
  <g shape-rendering="geometricPrecision" text-rendering="geometricPrecision" image-rendering="optimizeQuality">
    <g id="Background">
    </g>
    <g id="Guides">
    </g>
    <g id="Foreground">
      <g>
        <polygon points="0,0 88,0 88,31 0,31 0,0   " fill="#B3CEE1"/>
        <path d="M44,15.5" fill="#B3CEE1"/>
      </g>
      <g>
        <polygon points="0.366,0 30.366,0 30.366,31 0.366,31 0.366,0   " fill="#FFFFFF"/>
        <path d="M15.366,15.5" fill="#FFFFFF"/>
      </g>
      <g>
        <g>
          <defs>
            <polygon points="0,30 88,30 88,31 0,31 0,30     " id="XMLID_1405_"/>
          </defs>
          <use xlink:href="#XMLID_1405_" fill="#504D4C"/>
          <clipPath id="XMLID_1421_">
            <use xlink:href="#XMLID_1405_"/>
          </clipPath>
          <g clip-path="url(#XMLID_1421_)">
            <g>
              <polygon points="0,0 88,0 88,31 0,31 0,0      " fill="#48494B"/>
              <path d="M44,15.5" fill="#48494B"/>
            </g>
            <g>
              <polygon points="0.366,0 30.366,0 30.366,31 0.366,31 0.366,0      " fill="#4F4F4F"/>
              <path d="M15.366,15.5" fill="#4F4F4F"/>
            </g>
          </g>
        </g>
      </g>
      <g>
        <g>
          <defs>
            <polygon points="87,0 88,0 88,30 87,30 87,0     " id="XMLID_1407_"/>
          </defs>
          <use xlink:href="#XMLID_1407_" fill="#504D4C"/>
          <clipPath id="XMLID_1422_">
            <use xlink:href="#XMLID_1407_"/>
          </clipPath>
          <g clip-path="url(#XMLID_1422_)">
            <g>
              <polygon points="0,0 88,0 88,31 0,31 0,0      " fill="#48494B"/>
              <path d="M44,15.5" fill="#48494B"/>
            </g>
            <g>
              <g>
                <defs>
                  <polygon points="0,30 88,30 88,31 0,31 0,30        " id="XMLID_1409_"/>
                </defs>
                <use xlink:href="#XMLID_1409_" fill="#191919"/>
                <clipPath id="XMLID_1423_">
                  <use xlink:href="#XMLID_1409_"/>
                </clipPath>
                <g clip-path="url(#XMLID_1423_)">
                  <g>
                    <polygon points="0,0 88,0 88,31 0,31 0,0         " fill="#181818"/>
                    <path d="M44,15.5" fill="#181818"/>
                  </g>
                  <g>
                    <polygon points="0.366,0 30.366,0 30.366,31 0.366,31 0.366,0         " fill="#191919"/>
                    <path d="M15.366,15.5" fill="#191919"/>
                  </g>
                </g>
              </g>
            </g>
          </g>
        </g>
      </g>
      <g>
        <polygon points="0,0 1,0 1,31 0,31 0,0   " fill="#CCCCCC"/>
        <path d="M0.5,15.5" fill="#CCCCCC"/>
      </g>
      <g>
        <g>
          <defs>
            <polygon points="2.16,29.005 87.16,29.005 87.16,30.005 2.16,30.005 2.16,29.005     " id="XMLID_1411_"/>
          </defs>
          <use xlink:href="#XMLID_1411_" fill="#9E9C9C"/>
          <clipPath id="XMLID_1424_">
            <use xlink:href="#XMLID_1411_"/>
          </clipPath>
          <g clip-path="url(#XMLID_1424_)">
            <g>
              <polygon points="0,0 88,0 88,31 0,31 0,0      " fill="#9097A0"/>
              <path d="M44,15.5" fill="#9097A0"/>
            </g>
            <g>
              <polygon points="0.366,0 30.366,0 30.366,31 0.366,31 0.366,0      " fill="#B5B5B5"/>
              <path d="M15.366,15.5" fill="#B5B5B5"/>
            </g>
            <g>
              <g>
                <defs>
                  <polygon points="0,30 88,30 88,31 0,31 0,30        " id="XMLID_1413_"/>
                </defs>
                <use xlink:href="#XMLID_1413_" fill="#383838"/>
                <clipPath id="XMLID_1425_">
                  <use xlink:href="#XMLID_1413_"/>
                </clipPath>
                <g clip-path="url(#XMLID_1425_)">
                  <g>
                    <polygon points="0,0 88,0 88,31 0,31 0,0         " fill="#343536"/>
                    <path d="M44,15.5" fill="#343536"/>
                  </g>
                  <g>
                    <polygon points="0.366,0 30.366,0 30.366,31 0.366,31 0.366,0         " fill="#383838"/>
                    <path d="M15.366,15.5" fill="#383838"/>
                  </g>
                </g>
              </g>
            </g>
            <g>
              <g>
                <defs>
                  <polygon points="87,0 88,0 88,30 87,30 87,0        " id="XMLID_1415_"/>
                </defs>
                <use xlink:href="#XMLID_1415_" fill="#383838"/>
                <clipPath id="XMLID_1426_">
                  <use xlink:href="#XMLID_1415_"/>
                </clipPath>
                <g clip-path="url(#XMLID_1426_)">
                  <g>
                    <polygon points="0,0 88,0 88,31 0,31 0,0         " fill="#343536"/>
                    <path d="M44,15.5" fill="#343536"/>
                  </g>
                  <g>
                    <g>
                      <defs>
                        <polygon points="0,30 88,30 88,31 0,31 0,30           " id="XMLID_1417_"/>
                      </defs>
                      <use xlink:href="#XMLID_1417_" fill="#131313"/>
                      <clipPath id="XMLID_1427_">
                        <use xlink:href="#XMLID_1417_"/>
                      </clipPath>
                      <g clip-path="url(#XMLID_1427_)">
                        <g>
                          <polygon points="0,0 88,0 88,31 0,31 0,0            " fill="#131313"/>
                          <path d="M44,15.5" fill="#131313"/>
                        </g>
                        <g>
                          <polygon points="0.366,0 30.366,0 30.366,31 0.366,31 0.366,0            " fill="#131313"/>
                          <path d="M15.366,15.5" fill="#131313"/>
                        </g>
                      </g>
                    </g>
                  </g>
                </g>
              </g>
            </g>
          </g>
        </g>
      </g>
      <g>
        <g>
          <defs>
            <polygon points="85.957,0 86.957,0 86.957,29 85.957,29 85.957,0     " id="XMLID_1419_"/>
          </defs>
          <use xlink:href="#XMLID_1419_" fill="#9E9C9C"/>
          <clipPath id="XMLID_1428_">
            <use xlink:href="#XMLID_1419_"/>
          </clipPath>
          <g clip-path="url(#XMLID_1428_)">
            <g>
              <polygon points="0,0 88,0 88,31 0,31 0,0      " fill="#9097A0"/>
              <path d="M44,15.5" fill="#9097A0"/>
            </g>
          </g>
        </g>
      </g>
      <g>
        <g>
          <path d="M26.711,9.826l0.27,1.642l-0.956,1.828c0,0-0.367-0.775-0.977-1.205c-0.513-0.362-0.848-0.44-1.371-0.333     c-0.672,0.139-1.434,0.942-1.766,1.933c-0.398,1.185-0.401,1.758-0.416,2.285c-0.022,0.845,0.111,1.344,0.111,1.344     s-0.58-1.074-0.575-2.646c0.004-1.122,0.18-2.14,0.699-3.144c0.457-0.883,1.136-1.413,1.738-1.475     c0.623-0.064,1.116,0.236,1.496,0.561c0.399,0.341,0.803,1.087,0.803,1.087L26.711,9.826z"/>
          <path d="M26.829,19.113c0,0-0.422,0.755-0.686,1.046c-0.263,0.291-0.734,0.803-1.316,1.06c-0.582,0.256-0.886,0.305-1.461,0.249     c-0.574-0.055-1.108-0.388-1.295-0.526c-0.187-0.138-0.665-0.547-0.935-0.928c-0.27-0.381-0.692-1.143-0.692-1.143     s0.235,0.763,0.383,1.087c0.084,0.187,0.345,0.757,0.715,1.253c0.345,0.463,1.015,1.261,2.033,1.441s1.718-0.277,1.891-0.388     c0.173-0.111,0.538-0.416,0.769-0.663c0.241-0.258,0.469-0.587,0.596-0.784c0.092-0.144,0.243-0.437,0.243-0.437L26.829,19.113z"/>
        </g>
        <g>
          <path d="M9.25,9.898l2.302,7.825l2.301-7.825h1.667l-3.809,12.856h-0.159l-2.381-7.968L6.79,22.755H6.632     L2.822,9.898h1.667l2.301,7.825l1.556-5.27L7.584,9.898H9.25z" fill="#005A9C"/>
          <path d="M20.252,18.628c0,1.164-0.31,2.143-0.929,2.936c-0.619,0.794-1.42,1.19-2.405,1.19     c-0.741,0-1.386-0.235-1.937-0.706c-0.55-0.471-0.958-1.108-1.222-1.913l1.302-0.539c0.19,0.487,0.442,0.87,0.754,1.15     c0.313,0.281,0.68,0.42,1.103,0.42c0.444,0,0.82-0.249,1.127-0.746c0.307-0.497,0.46-1.095,0.46-1.793     c0-0.773-0.164-1.371-0.492-1.794c-0.381-0.497-0.979-0.746-1.794-0.746h-0.635v-0.762l2.222-3.841h-2.683l-0.746,1.27h-0.476     V9.898h6.19v0.778l-2.349,4.047c0.825,0.265,1.45,0.746,1.873,1.444C20.041,16.867,20.252,17.687,20.252,18.628z" fill="#005A9C"/>
        </g>
      </g>
      <g>
        <polygon points="0,0 88,0 88,1 0,1 0,0   " fill="#CCCCCC"/>
        <path d="M44,0.5" fill="#CCCCCC"/>
      </g>
      <polygon points="41.549,5.886 43.074,5.886 43.706,12.36 44.467,8.172 45.915,8.172    46.801,12.36 47.297,5.886 48.833,5.886 47.817,14.705 46.192,14.705 45.188,10.074 44.249,14.705 42.636,14.705  " clip-rule="evenodd" fill-rule="evenodd"/>
      <path clip-rule="evenodd" d="M52.713,7.481l-0.821,3.609h1.648L52.713,7.481z M51.65,5.886h2.133l2.38,8.819   H54.42l-0.543-2.18h-2.333l-0.532,2.18H49.27L51.65,5.886z" fill-rule="evenodd"/>
      <polygon points="57.616,7.422 57.616,5.886 62.867,5.886 62.867,7.422 61.113,7.422    61.113,13.169 62.867,13.169 62.867,14.705 57.616,14.705 57.616,13.169 59.37,13.169 59.37,7.422  " clip-rule="evenodd" fill-rule="evenodd"/>
      <rect fill-rule="evenodd" height="1.719" width="3.728" clip-rule="evenodd" y="10.364" x="63.847"/>
      <path clip-rule="evenodd" d="M72.991,7.481l-0.821,3.609h1.648L72.991,7.481z M71.928,5.886h2.132l2.38,8.819   h-1.743l-0.543-2.18h-2.333l-0.532,2.18h-1.743L71.928,5.886z" fill-rule="evenodd"/>
      <path clip-rule="evenodd" d="M80.274,7.481l-0.821,3.609h1.648L80.274,7.481z M79.211,5.886h2.132l2.38,8.819   h-1.742l-0.543-2.18h-2.333l-0.532,2.18H76.83L79.211,5.886z" fill-rule="evenodd"/>
      <polygon points="33.923,18.234 35.333,18.234 35.918,24.224 36.623,20.349 37.962,20.349    38.782,24.224 39.241,18.234 40.662,18.234 39.722,26.394 38.219,26.394 37.29,22.109 36.421,26.394 34.929,26.394  " clip-rule="evenodd" fill-rule="evenodd"/>
      <path clip-rule="evenodd" d="M46.57,26.159c-0.255,0.131-0.523,0.229-0.804,0.295   c-0.28,0.065-0.576,0.098-0.885,0.098c-1.101,0-1.94-0.362-2.52-1.087s-0.869-1.772-0.869-3.143c0-1.374,0.29-2.423,0.869-3.148   s1.419-1.087,2.52-1.088c0.31,0,0.606,0.033,0.891,0.099c0.284,0.065,0.55,0.164,0.798,0.295v1.792   c-0.277-0.255-0.547-0.44-0.809-0.557c-0.259-0.121-0.526-0.181-0.803-0.181c-0.59,0-1.037,0.235-1.339,0.705   c-0.299,0.466-0.448,1.161-0.448,2.083c0,0.918,0.149,1.612,0.448,2.082c0.302,0.467,0.749,0.7,1.339,0.7   c0.277,0,0.544-0.058,0.803-0.175c0.262-0.12,0.532-0.308,0.809-0.563V26.159z" fill-rule="evenodd"/>
      <path clip-rule="evenodd" d="M50.768,19.709l-0.76,3.34h1.525L50.768,19.709z M49.784,18.234h1.973l2.203,8.16   h-1.612l-0.503-2.017h-2.159l-0.492,2.017h-1.612L49.784,18.234z" fill-rule="evenodd"/>
      <path clip-rule="evenodd" d="M58.905,24.918V23.36h-1.104v-1.355h2.514v3.738   c-0.31,0.266-0.652,0.468-1.027,0.606c-0.372,0.135-0.771,0.202-1.197,0.202c-1.057,0-1.873-0.366-2.449-1.099   c-0.576-0.736-0.863-1.78-0.863-3.131c0-1.374,0.29-2.423,0.869-3.148c0.583-0.725,1.423-1.087,2.52-1.088   c0.328,0,0.65,0.047,0.967,0.142c0.317,0.091,0.614,0.224,0.891,0.399v1.787c-0.226-0.291-0.486-0.51-0.782-0.656   c-0.292-0.149-0.612-0.224-0.962-0.224c-0.612,0-1.069,0.231-1.372,0.694c-0.303,0.459-0.454,1.157-0.454,2.093   c0,0.907,0.146,1.598,0.437,2.071s0.716,0.71,1.273,0.71c0.168,0,0.313-0.015,0.438-0.044   C58.729,25.027,58.829,24.98,58.905,24.918z" fill-rule="evenodd"/>
      <polygon points="66.966,24.973 68.77,24.973 68.77,19.677 67.092,20.092 67.092,18.639    68.781,18.234 70.338,18.234 70.338,24.973 72.142,24.973 72.142,26.394 66.966,26.394  " clip-rule="evenodd" fill-rule="evenodd"/>
      <rect fill-rule="evenodd" height="2.005" width="1.82" clip-rule="evenodd" y="24.388" x="74.012"/>
      <path clip-rule="evenodd" d="M80.544,19.535c-0.412,0-0.712,0.221-0.902,0.662   c-0.189,0.437-0.284,1.146-0.284,2.126c0,0.977,0.095,1.685,0.284,2.126c0.189,0.437,0.49,0.656,0.902,0.656   c0.416,0,0.718-0.219,0.907-0.656c0.189-0.441,0.284-1.149,0.284-2.126c0-0.98-0.095-1.689-0.284-2.126   C81.262,19.755,80.96,19.535,80.544,19.535z M77.681,22.322c0-1.396,0.24-2.45,0.721-3.165c0.485-0.714,1.199-1.071,2.143-1.071   c0.947,0,1.661,0.357,2.143,1.071c0.484,0.714,0.727,1.769,0.727,3.165c0,1.392-0.243,2.445-0.727,3.159   c-0.481,0.714-1.195,1.071-2.143,1.071c-0.944,0-1.658-0.357-2.143-1.071C77.921,24.767,77.681,23.714,77.681,22.322z" fill-rule="evenodd"/>
    </g>
    <g id="Calque_1">
    </g>
  </g>
</svg>